<svg xmlns="http://www.w3.org/2000/svg" viewBox="0 0 87.5 87.5">
  <defs>
    <style>.cls-1{fill:#ff9f68;}</style>
  </defs>
  <g id="Layer_2" data-name="Layer 2">
    <g id="Layer_1-2" data-name="Layer 1">
      <path class="cls-1" d="M43.75,0A43.75,43.75,0,1,0,87.5,43.75,43.8,43.8,0,0,0,43.75,0Zm24,13A50.83,50.83,0,0,0,52.52,15.5C50.24,12.58,49,9.77,49,7.32a6.33,6.33,0,0,1,.39-2.23c.06-.15.12-.26.17-.36A39.29,39.29,0,0,1,68.41,13Zm15.34,27.9a39.24,39.24,0,0,0-3.94-4.35A36.1,36.1,0,0,0,71.85,31,61.78,61.78,0,0,1,54.47,17.81a47.38,47.38,0,0,1,13.3-2.07c.82,0,1.63,0,2.45.08l.82.07.55,0h.12A39.36,39.36,0,0,1,83.09,40.87ZM46.71,4.42a8.92,8.92,0,0,0-.46,2.9c0,2,.64,5.2,3.5,9.13-2,.74-4.07,1.61-6.25,2.67C37.72,11.84,33,8.37,30.06,6.75A39.14,39.14,0,0,1,43.75,4.3C44.75,4.29,45.74,4.34,46.71,4.42ZM26.64,8.2C28.07,8.67,33.42,11,41,20.39a83.55,83.55,0,0,0-8.55,5.25C32,25.09,31.5,24.55,31,24A14.49,14.49,0,0,0,20.3,19.59a22.69,22.69,0,0,0-9.19,2.14l-.12.05A39.77,39.77,0,0,1,26.64,8.2ZM8.29,26.47l.47-.33a23.59,23.59,0,0,1,3.69-2,20.22,20.22,0,0,1,7.84-1.81A11.75,11.75,0,0,1,29,26c.41.41.79.84,1.16,1.27l-2,1.5C20,35.19,14,42.05,10.54,49.16a32.72,32.72,0,0,0-3.16,9.9,39.39,39.39,0,0,1,.91-32.59Zm1.83,37.88h0L10,63.51a10.71,10.71,0,0,1-.08-1.42A27,27,0,0,1,13,50.38C16.34,43.65,22,37.12,29.91,31c.65-.5,1.29-1,1.93-1.46a20.62,20.62,0,0,1,2.21,4.58,29.47,29.47,0,0,1,1.44,9.68c0,5.71-1.16,12-2.29,17.33a54.33,54.33,0,0,0-1.26,11.27,34,34,0,0,0,1.19,9.4A39.63,39.63,0,0,1,10.12,64.35ZM36.33,82.5c-.31-.71-1.61-4.06-1.61-10.15a52.22,52.22,0,0,1,1.19-10.7,89.37,89.37,0,0,0,2.36-17.9,32.24,32.24,0,0,0-1.59-10.58,24.12,24.12,0,0,0-2.59-5.3,80.54,80.54,0,0,1,8.63-5.25c1.64,2.18,3.36,4.68,5.17,7.56A150.59,150.59,0,0,1,60.63,54.82C63.47,62.11,65,68.58,65,73.54a20.62,20.62,0,0,1-.31,3.65A39.28,39.28,0,0,1,36.33,82.5ZM67.7,75.08c0-.5,0-1,0-1.54,0-5.38-1.53-12-4.54-19.73a153.06,153.06,0,0,0-13-25.11c-1.73-2.76-3.4-5.19-5-7.34a63.71,63.71,0,0,1,6.36-2.62A63.75,63.75,0,0,0,70.54,33.43a34,34,0,0,1,6.7,5.09,30.14,30.14,0,0,1,5.66,7.11l.23.44A39.44,39.44,0,0,1,67.7,75.08Z" />
    </g>
  </g>
</svg>
