<?xml version="1.0" encoding="utf-8"?>
<!-- Generator: Adobe Illustrator 26.0.3, SVG Export Plug-In . SVG Version: 6.00 Build 0)  -->
<svg version="1.1" id="Lager_1" xmlns="http://www.w3.org/2000/svg" xmlns:xlink="http://www.w3.org/1999/xlink" x="0px" y="0px"
	 viewBox="0 0 600 600" style="enable-background:new 0 0 600 600;" xml:space="preserve">
<style type="text/css">
	.st0{fill:#E2007A;}
	.st1{fill:#FFFFFF;}
</style>
<circle class="st0" cx="300" cy="300" r="300"/>
<g>
	<polygon class="st1" points="159.85,401.85 168.01,401.85 160.24,441.78 152.07,441.78 	"/>
	<polygon class="st1" points="195.16,401.85 187.39,441.78 180.4,441.78 176.07,418.97 171.62,441.78 164.63,441.78 172.41,401.85 
		179.39,401.85 183.73,424.6 188.18,401.85 	"/>
	<polygon class="st1" points="218.54,409.23 211.5,409.23 205.14,441.78 196.97,441.78 203.33,409.23 196.18,409.23 197.58,401.85 
		220,401.85 	"/>
	<polygon class="st1" points="229.24,409.23 227.38,418.63 234.42,418.63 232.96,426.01 225.92,426.01 224.28,434.4 233.64,434.4 
		232.23,441.78 214.71,441.78 222.48,401.85 239.94,401.85 238.53,409.23 	"/>
	<path class="st1" d="M251.1,419.65c1.52,0,3.1-1.35,3.44-3.1l0.79-4c0.45-2.19-0.34-3.32-2.37-3.32h-2.76l-2.08,10.42H251.1z
		 M263.43,412.55l-0.84,4.45c-0.62,3.27-2.37,5.91-4.85,7.66l1.52,17.12h-7.72l-1.18-14.76h-0.4h-3.27l-2.87,14.76h-8.17l7.77-39.93
		h10.59C260.5,401.85,264.62,406.52,263.43,412.55"/>
	<polygon class="st1" points="293.23,401.85 285.46,441.78 278.47,441.78 274.14,418.97 269.69,441.78 262.7,441.78 270.48,401.85 
		277.46,401.85 281.8,424.6 286.25,401.85 	"/>
	<path class="st1" d="M301.29,426.86h3.83l0.23-14.87L301.29,426.86z M313.12,401.85l-0.39,39.93h-7.89l0.17-7.6h-5.97l-2.65,7.6
		h-7.94l14.36-39.93H313.12z"/>
	<polygon class="st1" points="341.62,409.23 334.58,409.23 328.21,441.78 320.05,441.78 326.41,409.23 319.26,409.23 320.67,401.85 
		343.08,401.85 	"/>
	<polygon class="st1" points="345.56,401.85 353.73,401.85 345.95,441.78 337.79,441.78 	"/>
	<path class="st1" d="M366.4,432.04l3.94-20.33c0.4-1.92-0.84-3.32-2.7-3.32c-1.75,0-3.21,1.13-3.61,3.16l-4,20.33
		c-0.34,1.91,0.84,3.38,2.7,3.38C364.49,435.25,366.01,434.12,366.4,432.04 M352.04,430.69l3.89-19.49
		c1.24-6.25,5.74-10.19,12.56-10.19c7.1,0,11.04,5.92,9.86,12l-3.83,19.43c-1.24,6.25-5.74,10.19-12.62,10.19
		C354.8,442.63,350.86,436.66,352.04,430.69"/>
	<polygon class="st1" points="407.18,401.85 399.41,441.78 392.43,441.78 388.09,418.97 383.64,441.78 376.66,441.78 384.43,401.85 
		391.41,401.85 395.75,424.6 400.2,401.85 	"/>
	<path class="st1" d="M415.24,426.86h3.83l0.23-14.87L415.24,426.86z M427.07,401.85l-0.39,39.93h-7.89l0.17-7.6h-5.97l-2.65,7.6
		h-7.94l14.36-39.93H427.07z"/>
	<polygon class="st1" points="449.15,434.4 447.74,441.78 430.22,441.78 437.99,401.85 446.16,401.85 439.8,434.4 	"/>
	<path class="st1" d="M149.26,229.45l9.55-47.77c3.05-15.37,14.13-25.06,30.74-25.06c17.44,0,27.28,14.54,24.23,29.35l-2.22,10.52
		h-19.94l2.77-13.57c0.97-4.71-2.49-8.17-6.78-8.17c-4.29,0-8.03,2.77-9,7.89l-9.69,49.84c-0.83,4.71,2.08,8.3,6.64,8.3
		c4.3,0,8.03-2.77,9-7.89l2.77-13.84h20.08l-2.91,14.81c-2.91,14.96-14.13,25.06-30.87,25.06
		C156.18,258.93,146.21,244.54,149.26,229.45"/>
	<path class="st1" d="M249.22,232.91l9.69-49.98c0.97-4.71-2.08-8.17-6.65-8.17c-4.29,0-7.89,2.77-8.86,7.75l-9.83,49.98
		c-0.83,4.71,2.08,8.31,6.64,8.31C244.52,240.8,248.25,238.03,249.22,232.91 M213.92,229.59l9.55-47.91
		c3.05-15.37,14.12-25.06,30.88-25.06c17.44,0,27.13,14.54,24.23,29.49l-9.42,47.77c-3.05,15.37-14.12,25.06-31.01,25.06
		C220.7,258.94,211.01,244.26,213.92,229.59"/>
	<polygon class="st1" points="430.04,256.86 413.43,256.86 425.33,195.8 401.1,256.86 386.56,256.86 386.71,256.44 386.29,195.11 
		374.24,256.86 357.63,256.86 376.74,158.7 399.58,158.7 401.38,216.71 425.75,158.7 449.15,158.7 	"/>
	<path class="st1" d="M152.59,351.19l14.12-70.89h19.94l-14.4,73.8c-0.97,4.71,2.22,8.31,6.09,8.31c3.6,0,7.2-2.77,8.17-7.89
		l14.53-74.21h20.35l-14.95,75.18c-3.05,15.37-14.12,25.06-30.32,25.06C159.37,380.55,149.68,365.87,152.59,351.19"/>
	<polygon class="st1" points="342.54,158.7 318.17,216.71 316.37,158.7 293.53,158.7 258.92,336.24 248.26,280.31 231.09,280.31 
		211.98,378.47 229.15,378.47 240.09,322.4 250.75,378.47 267.36,378.47 303.08,195.11 303.49,256.44 303.36,256.86 317.89,256.86 
		342.12,195.8 330.22,256.86 346.83,256.86 365.94,158.7 	"/>
	<polygon class="st1" points="297.82,280.31 317.9,280.31 298.79,378.47 278.71,378.47 	"/>
	<polygon class="st1" points="375.36,298.44 358.05,298.44 342.4,378.47 322.33,378.47 337.98,298.44 320.39,298.44 323.85,280.31 
		378.95,280.31 	"/>
	<polygon class="st1" points="410.38,345.79 404.15,378.47 384.08,378.47 390.58,344.41 381.59,280.17 402.07,280.17 405.4,319.63 
		423.95,280.17 445.27,280.17 	"/>
</g>
</svg>
